<mxfile host="app.diagrams.net" agent="Mozilla/5.0 (Windows NT 10.0; Win64; x64) AppleWebKit/537.36 (KHTML, like Gecko) Chrome/113.0.0.0 Safari/537.36" version="24.7.17">
  <diagram name="第 1 页" id="Lchc7dDCW7_XuwhXlyHb">
    <mxGraphModel dx="3915" dy="788" grid="1" gridSize="10" guides="1" tooltips="1" connect="1" arrows="1" fold="1" page="1" pageScale="1" pageWidth="827" pageHeight="1169" math="0" shadow="0">
      <root>
        <mxCell id="0" />
        <mxCell id="1" parent="0" />
        <mxCell id="aPG-wjut5bU0Uu7Rqg-r-76" value="" style="group;fontSize=15;sketch=1;curveFitting=1;jiggle=2;" parent="1" vertex="1" connectable="0">
          <mxGeometry x="-70" y="50" width="1110" height="1510" as="geometry" />
        </mxCell>
        <mxCell id="aPG-wjut5bU0Uu7Rqg-r-75" value="" style="rounded=0;whiteSpace=wrap;html=1;sketch=1;hachureGap=4;jiggle=2;curveFitting=1;fontFamily=Architects Daughter;fontSource=https%3A%2F%2Ffonts.googleapis.com%2Fcss%3Ffamily%3DArchitects%2BDaughter;" parent="aPG-wjut5bU0Uu7Rqg-r-76" vertex="1">
          <mxGeometry width="1110" height="1510" as="geometry" />
        </mxCell>
        <mxCell id="aPG-wjut5bU0Uu7Rqg-r-16" value="" style="edgeStyle=orthogonalEdgeStyle;rounded=0;sketch=1;hachureGap=4;jiggle=2;curveFitting=1;orthogonalLoop=1;jettySize=auto;html=1;fontFamily=Architects Daughter;fontSource=https%3A%2F%2Ffonts.googleapis.com%2Fcss%3Ffamily%3DArchitects%2BDaughter;" parent="aPG-wjut5bU0Uu7Rqg-r-76" source="aPG-wjut5bU0Uu7Rqg-r-2" target="aPG-wjut5bU0Uu7Rqg-r-3" edge="1">
          <mxGeometry relative="1" as="geometry" />
        </mxCell>
        <mxCell id="aPG-wjut5bU0Uu7Rqg-r-2" value="LiveApply::apply" style="rounded=1;whiteSpace=wrap;html=1;sketch=1;hachureGap=4;jiggle=2;curveFitting=1;fontFamily=Comic Sans MS;fontSize=15;fontStyle=1;labelBackgroundColor=none;fillColor=#dae8fc;strokeColor=#6c8ebf;gradientColor=#7ea6e0;" parent="aPG-wjut5bU0Uu7Rqg-r-76" vertex="1">
          <mxGeometry x="400" y="20" width="130" height="60" as="geometry" />
        </mxCell>
        <mxCell id="aPG-wjut5bU0Uu7Rqg-r-17" style="edgeStyle=orthogonalEdgeStyle;rounded=0;sketch=1;hachureGap=4;jiggle=2;curveFitting=1;orthogonalLoop=1;jettySize=auto;html=1;exitX=0.5;exitY=1;exitDx=0;exitDy=0;fontFamily=Architects Daughter;fontSource=https%3A%2F%2Ffonts.googleapis.com%2Fcss%3Ffamily%3DArchitects%2BDaughter;" parent="aPG-wjut5bU0Uu7Rqg-r-76" source="aPG-wjut5bU0Uu7Rqg-r-3" target="aPG-wjut5bU0Uu7Rqg-r-4" edge="1">
          <mxGeometry relative="1" as="geometry" />
        </mxCell>
        <mxCell id="aPG-wjut5bU0Uu7Rqg-r-3" value="LiveHookDeref::deref_before_apply" style="rounded=1;whiteSpace=wrap;html=1;sketch=1;hachureGap=4;jiggle=2;curveFitting=1;fontFamily=Comic Sans MS;fontSize=15;fontStyle=1;labelBackgroundColor=none;" parent="aPG-wjut5bU0Uu7Rqg-r-76" vertex="1">
          <mxGeometry x="324.5" y="110" width="281" height="60" as="geometry" />
        </mxCell>
        <mxCell id="aPG-wjut5bU0Uu7Rqg-r-18" style="edgeStyle=orthogonalEdgeStyle;rounded=0;sketch=1;hachureGap=4;jiggle=2;curveFitting=1;orthogonalLoop=1;jettySize=auto;html=1;exitX=0.5;exitY=1;exitDx=0;exitDy=0;entryX=0.5;entryY=0;entryDx=0;entryDy=0;fontFamily=Architects Daughter;fontSource=https%3A%2F%2Ffonts.googleapis.com%2Fcss%3Ffamily%3DArchitects%2BDaughter;" parent="aPG-wjut5bU0Uu7Rqg-r-76" source="aPG-wjut5bU0Uu7Rqg-r-4" target="aPG-wjut5bU0Uu7Rqg-r-5" edge="1">
          <mxGeometry relative="1" as="geometry" />
        </mxCell>
        <mxCell id="aPG-wjut5bU0Uu7Rqg-r-4" value="&lt;span class=&quot;notion-enable-hover&quot; data-token-index=&quot;0&quot;&gt;LiveHook&lt;/span&gt;::before_apply" style="rounded=1;whiteSpace=wrap;html=1;sketch=1;hachureGap=4;jiggle=2;curveFitting=1;fontFamily=Comic Sans MS;fontSize=15;fontStyle=1;labelBackgroundColor=none;fillColor=#e6d0de;strokeColor=#996185;gradientColor=#d5739d;" parent="aPG-wjut5bU0Uu7Rqg-r-76" vertex="1">
          <mxGeometry x="364.5" y="200" width="201" height="60" as="geometry" />
        </mxCell>
        <mxCell id="aPG-wjut5bU0Uu7Rqg-r-20" style="edgeStyle=orthogonalEdgeStyle;rounded=0;sketch=1;hachureGap=4;jiggle=2;curveFitting=1;orthogonalLoop=1;jettySize=auto;html=1;exitX=0.5;exitY=1;exitDx=0;exitDy=0;fontFamily=Architects Daughter;fontSource=https%3A%2F%2Ffonts.googleapis.com%2Fcss%3Ffamily%3DArchitects%2BDaughter;" parent="aPG-wjut5bU0Uu7Rqg-r-76" source="aPG-wjut5bU0Uu7Rqg-r-5" target="aPG-wjut5bU0Uu7Rqg-r-50" edge="1">
          <mxGeometry relative="1" as="geometry">
            <mxPoint x="467.25" y="370" as="targetPoint" />
          </mxGeometry>
        </mxCell>
        <mxCell id="aPG-wjut5bU0Uu7Rqg-r-5" value="&lt;span class=&quot;notion-enable-hover&quot; data-token-index=&quot;0&quot;&gt;LiveHook&lt;/span&gt;::skipApply" style="rounded=1;whiteSpace=wrap;html=1;sketch=1;hachureGap=4;jiggle=2;curveFitting=1;fontFamily=Comic Sans MS;fontSize=15;fontStyle=1;labelBackgroundColor=none;" parent="aPG-wjut5bU0Uu7Rqg-r-76" vertex="1">
          <mxGeometry x="366.75" y="290" width="201" height="60" as="geometry" />
        </mxCell>
        <mxCell id="aPG-wjut5bU0Uu7Rqg-r-23" style="edgeStyle=orthogonalEdgeStyle;rounded=0;sketch=1;hachureGap=4;jiggle=2;curveFitting=1;orthogonalLoop=1;jettySize=auto;html=1;exitX=0.5;exitY=1;exitDx=0;exitDy=0;entryX=0.5;entryY=0;entryDx=0;entryDy=0;fontFamily=Architects Daughter;fontSource=https%3A%2F%2Ffonts.googleapis.com%2Fcss%3Ffamily%3DArchitects%2BDaughter;" parent="aPG-wjut5bU0Uu7Rqg-r-76" source="aPG-wjut5bU0Uu7Rqg-r-6" target="aPG-wjut5bU0Uu7Rqg-r-52" edge="1">
          <mxGeometry relative="1" as="geometry">
            <mxPoint x="465" y="560" as="targetPoint" />
          </mxGeometry>
        </mxCell>
        <mxCell id="aPG-wjut5bU0Uu7Rqg-r-6" value="LiveApplyValue::apply_value" style="rounded=1;whiteSpace=wrap;html=1;sketch=1;hachureGap=4;jiggle=2;curveFitting=1;fontFamily=Comic Sans MS;fontSize=15;fontStyle=1;labelBackgroundColor=none;" parent="aPG-wjut5bU0Uu7Rqg-r-76" vertex="1">
          <mxGeometry x="346.75" y="475" width="221" height="60" as="geometry" />
        </mxCell>
        <mxCell id="aPG-wjut5bU0Uu7Rqg-r-28" style="edgeStyle=orthogonalEdgeStyle;rounded=0;sketch=1;hachureGap=4;jiggle=2;curveFitting=1;orthogonalLoop=1;jettySize=auto;html=1;exitX=0.5;exitY=1;exitDx=0;exitDy=0;entryX=0.5;entryY=0;entryDx=0;entryDy=0;fontFamily=Architects Daughter;fontSource=https%3A%2F%2Ffonts.googleapis.com%2Fcss%3Ffamily%3DArchitects%2BDaughter;" parent="aPG-wjut5bU0Uu7Rqg-r-76" source="aPG-wjut5bU0Uu7Rqg-r-7" target="aPG-wjut5bU0Uu7Rqg-r-27" edge="1">
          <mxGeometry relative="1" as="geometry" />
        </mxCell>
        <mxCell id="aPG-wjut5bU0Uu7Rqg-r-7" value="&lt;span class=&quot;notion-enable-hover&quot; data-token-index=&quot;0&quot;&gt;LiveHook&lt;/span&gt;::apply_value_instance" style="rounded=1;whiteSpace=wrap;html=1;sketch=1;hachureGap=4;jiggle=2;curveFitting=1;fontFamily=Comic Sans MS;fontSize=15;fontStyle=1;labelBackgroundColor=none;" parent="aPG-wjut5bU0Uu7Rqg-r-76" vertex="1">
          <mxGeometry x="55.5" y="570" width="233.25" height="60" as="geometry" />
        </mxCell>
        <mxCell id="aPG-wjut5bU0Uu7Rqg-r-39" style="edgeStyle=orthogonalEdgeStyle;rounded=0;sketch=1;hachureGap=4;jiggle=2;curveFitting=1;orthogonalLoop=1;jettySize=auto;html=1;exitX=0.5;exitY=1;exitDx=0;exitDy=0;entryX=0.5;entryY=0;entryDx=0;entryDy=0;fontFamily=Architects Daughter;fontSource=https%3A%2F%2Ffonts.googleapis.com%2Fcss%3Ffamily%3DArchitects%2BDaughter;" parent="aPG-wjut5bU0Uu7Rqg-r-76" source="aPG-wjut5bU0Uu7Rqg-r-8" target="aPG-wjut5bU0Uu7Rqg-r-11" edge="1">
          <mxGeometry relative="1" as="geometry" />
        </mxCell>
        <mxCell id="aPG-wjut5bU0Uu7Rqg-r-8" value="LiveHookDeref::deref_after_apply" style="rounded=1;whiteSpace=wrap;html=1;sketch=1;hachureGap=4;jiggle=2;curveFitting=1;fontFamily=Comic Sans MS;fontSize=15;fontStyle=1;labelBackgroundColor=none;" parent="aPG-wjut5bU0Uu7Rqg-r-76" vertex="1">
          <mxGeometry x="340.75" y="830" width="261" height="50" as="geometry" />
        </mxCell>
        <mxCell id="aPG-wjut5bU0Uu7Rqg-r-40" style="edgeStyle=orthogonalEdgeStyle;rounded=0;sketch=1;hachureGap=4;jiggle=2;curveFitting=1;orthogonalLoop=1;jettySize=auto;html=1;exitX=0.5;exitY=1;exitDx=0;exitDy=0;entryX=0.5;entryY=0;entryDx=0;entryDy=0;fontFamily=Architects Daughter;fontSource=https%3A%2F%2Ffonts.googleapis.com%2Fcss%3Ffamily%3DArchitects%2BDaughter;" parent="aPG-wjut5bU0Uu7Rqg-r-76" source="aPG-wjut5bU0Uu7Rqg-r-11" target="aPG-wjut5bU0Uu7Rqg-r-12" edge="1">
          <mxGeometry relative="1" as="geometry" />
        </mxCell>
        <mxCell id="aPG-wjut5bU0Uu7Rqg-r-11" value="&lt;span class=&quot;notion-enable-hover&quot; data-token-index=&quot;0&quot;&gt;LiveHook&lt;/span&gt;::after_apply" style="rounded=1;whiteSpace=wrap;html=1;sketch=1;hachureGap=4;jiggle=2;curveFitting=1;fontFamily=Comic Sans MS;fontSize=15;fontStyle=1;labelBackgroundColor=none;fillColor=#e6d0de;gradientColor=#d5739d;strokeColor=#996185;" parent="aPG-wjut5bU0Uu7Rqg-r-76" vertex="1">
          <mxGeometry x="360.75" y="920" width="221" height="60" as="geometry" />
        </mxCell>
        <mxCell id="aPG-wjut5bU0Uu7Rqg-r-42" style="edgeStyle=orthogonalEdgeStyle;rounded=0;sketch=1;hachureGap=4;jiggle=2;curveFitting=1;orthogonalLoop=1;jettySize=auto;html=1;exitX=0.5;exitY=1;exitDx=0;exitDy=0;entryX=0.5;entryY=0;entryDx=0;entryDy=0;fontFamily=Architects Daughter;fontSource=https%3A%2F%2Ffonts.googleapis.com%2Fcss%3Ffamily%3DArchitects%2BDaughter;" parent="aPG-wjut5bU0Uu7Rqg-r-76" source="aPG-wjut5bU0Uu7Rqg-r-12" target="aPG-wjut5bU0Uu7Rqg-r-41" edge="1">
          <mxGeometry relative="1" as="geometry" />
        </mxCell>
        <mxCell id="aPG-wjut5bU0Uu7Rqg-r-12" value="&lt;span class=&quot;notion-enable-hover&quot; data-token-index=&quot;0&quot;&gt;LiveHook&lt;/span&gt;::after_apply_from" style="rounded=1;whiteSpace=wrap;html=1;sketch=1;hachureGap=4;jiggle=2;curveFitting=1;fontFamily=Comic Sans MS;fontSize=15;fontStyle=1;labelBackgroundColor=none;" parent="aPG-wjut5bU0Uu7Rqg-r-76" vertex="1">
          <mxGeometry x="358.5" y="1020" width="225.5" height="60" as="geometry" />
        </mxCell>
        <mxCell id="aPG-wjut5bU0Uu7Rqg-r-13" value="&lt;span class=&quot;notion-enable-hover&quot; data-token-index=&quot;0&quot;&gt;LiveHook&lt;/span&gt;::after_new_from_doc" style="rounded=1;whiteSpace=wrap;html=1;sketch=1;hachureGap=4;jiggle=2;curveFitting=1;fontFamily=Comic Sans MS;fontSize=15;fontStyle=1;labelBackgroundColor=none;fillColor=#e6d0de;gradientColor=#d5739d;strokeColor=#996185;" parent="aPG-wjut5bU0Uu7Rqg-r-76" vertex="1">
          <mxGeometry x="670" y="1180" width="245.5" height="60" as="geometry" />
        </mxCell>
        <mxCell id="aPG-wjut5bU0Uu7Rqg-r-14" value="&lt;span class=&quot;notion-enable-hover&quot; data-token-index=&quot;0&quot;&gt;LiveHook::&lt;/span&gt;after_update_from_doc" style="rounded=1;whiteSpace=wrap;html=1;sketch=1;hachureGap=4;jiggle=2;curveFitting=1;fontFamily=Comic Sans MS;fontSize=15;fontStyle=1;labelBackgroundColor=none;fillColor=#e6d0de;gradientColor=#d5739d;strokeColor=#996185;" parent="aPG-wjut5bU0Uu7Rqg-r-76" vertex="1">
          <mxGeometry x="55.5" y="1190" width="269" height="60" as="geometry" />
        </mxCell>
        <mxCell id="aPG-wjut5bU0Uu7Rqg-r-65" style="edgeStyle=orthogonalEdgeStyle;rounded=0;sketch=1;hachureGap=4;jiggle=2;curveFitting=1;orthogonalLoop=1;jettySize=auto;html=1;exitX=0.5;exitY=1;exitDx=0;exitDy=0;entryX=0.5;entryY=0;entryDx=0;entryDy=0;fontFamily=Architects Daughter;fontSource=https%3A%2F%2Ffonts.googleapis.com%2Fcss%3Ffamily%3DArchitects%2BDaughter;" parent="aPG-wjut5bU0Uu7Rqg-r-76" source="aPG-wjut5bU0Uu7Rqg-r-15" target="aPG-wjut5bU0Uu7Rqg-r-64" edge="1">
          <mxGeometry relative="1" as="geometry" />
        </mxCell>
        <mxCell id="aPG-wjut5bU0Uu7Rqg-r-15" value="&lt;span class=&quot;notion-enable-hover&quot; data-token-index=&quot;0&quot;&gt;LiveHook::&lt;/span&gt;after_apply_from_doc" style="rounded=1;whiteSpace=wrap;html=1;sketch=1;hachureGap=4;jiggle=2;curveFitting=1;fontFamily=Comic Sans MS;fontSize=15;fontStyle=1;labelBackgroundColor=none;fillColor=#e6d0de;gradientColor=#d5739d;strokeColor=#996185;" parent="aPG-wjut5bU0Uu7Rqg-r-76" vertex="1">
          <mxGeometry x="340.75" y="1320" width="269" height="60" as="geometry" />
        </mxCell>
        <mxCell id="aPG-wjut5bU0Uu7Rqg-r-21" style="edgeStyle=orthogonalEdgeStyle;rounded=0;sketch=1;hachureGap=4;jiggle=2;curveFitting=1;orthogonalLoop=1;jettySize=auto;html=1;entryX=0.54;entryY=-0.067;entryDx=0;entryDy=0;entryPerimeter=0;fontFamily=Architects Daughter;fontSource=https%3A%2F%2Ffonts.googleapis.com%2Fcss%3Ffamily%3DArchitects%2BDaughter;" parent="aPG-wjut5bU0Uu7Rqg-r-76" source="aPG-wjut5bU0Uu7Rqg-r-50" target="aPG-wjut5bU0Uu7Rqg-r-6" edge="1">
          <mxGeometry relative="1" as="geometry">
            <mxPoint x="467.25" y="450" as="sourcePoint" />
          </mxGeometry>
        </mxCell>
        <mxCell id="aPG-wjut5bU0Uu7Rqg-r-51" value="&lt;span style=&quot;font-family: &amp;quot;Comic Sans MS&amp;quot;; font-size: 15px; font-weight: 700;&quot;&gt;false&lt;/span&gt;" style="edgeLabel;html=1;align=center;verticalAlign=middle;resizable=0;points=[];sketch=1;hachureGap=4;jiggle=2;curveFitting=1;fontFamily=Architects Daughter;fontSource=https%3A%2F%2Ffonts.googleapis.com%2Fcss%3Ffamily%3DArchitects%2BDaughter;" parent="aPG-wjut5bU0Uu7Rqg-r-21" vertex="1" connectable="0">
          <mxGeometry x="-0.4797" y="3" relative="1" as="geometry">
            <mxPoint as="offset" />
          </mxGeometry>
        </mxCell>
        <mxCell id="aPG-wjut5bU0Uu7Rqg-r-26" style="edgeStyle=orthogonalEdgeStyle;rounded=0;sketch=1;hachureGap=4;jiggle=2;curveFitting=1;orthogonalLoop=1;jettySize=auto;html=1;exitX=1;exitY=0.5;exitDx=0;exitDy=0;entryX=0;entryY=0.5;entryDx=0;entryDy=0;fontFamily=Architects Daughter;fontSource=https%3A%2F%2Ffonts.googleapis.com%2Fcss%3Ffamily%3DArchitects%2BDaughter;" parent="aPG-wjut5bU0Uu7Rqg-r-76" source="aPG-wjut5bU0Uu7Rqg-r-52" target="aPG-wjut5bU0Uu7Rqg-r-66" edge="1">
          <mxGeometry relative="1" as="geometry">
            <mxPoint x="516.5" y="600" as="sourcePoint" />
          </mxGeometry>
        </mxCell>
        <mxCell id="aPG-wjut5bU0Uu7Rqg-r-60" value="true" style="edgeLabel;html=1;align=center;verticalAlign=middle;resizable=0;points=[];sketch=1;hachureGap=4;jiggle=2;curveFitting=1;fontFamily=Comic Sans MS;fontSize=15;fontStyle=1" parent="aPG-wjut5bU0Uu7Rqg-r-26" vertex="1" connectable="0">
          <mxGeometry x="0.0366" y="3" relative="1" as="geometry">
            <mxPoint as="offset" />
          </mxGeometry>
        </mxCell>
        <mxCell id="aPG-wjut5bU0Uu7Rqg-r-29" style="edgeStyle=orthogonalEdgeStyle;rounded=0;sketch=1;hachureGap=4;jiggle=2;curveFitting=1;orthogonalLoop=1;jettySize=auto;html=1;exitX=0.5;exitY=1;exitDx=0;exitDy=0;fontFamily=Architects Daughter;fontSource=https%3A%2F%2Ffonts.googleapis.com%2Fcss%3Ffamily%3DArchitects%2BDaughter;" parent="aPG-wjut5bU0Uu7Rqg-r-76" source="aPG-wjut5bU0Uu7Rqg-r-24" target="aPG-wjut5bU0Uu7Rqg-r-27" edge="1">
          <mxGeometry relative="1" as="geometry" />
        </mxCell>
        <mxCell id="aPG-wjut5bU0Uu7Rqg-r-24" value="&lt;span class=&quot;notion-enable-hover&quot; data-token-index=&quot;0&quot;&gt;LiveHook&lt;/span&gt;::apply_value_unknown" style="rounded=1;whiteSpace=wrap;html=1;sketch=1;hachureGap=4;jiggle=2;curveFitting=1;fontFamily=Comic Sans MS;fontSize=15;fontStyle=1;labelBackgroundColor=none;" parent="aPG-wjut5bU0Uu7Rqg-r-76" vertex="1">
          <mxGeometry x="670" y="570" width="235.5" height="60" as="geometry" />
        </mxCell>
        <mxCell id="aPG-wjut5bU0Uu7Rqg-r-36" style="edgeStyle=orthogonalEdgeStyle;rounded=0;sketch=1;hachureGap=4;jiggle=2;curveFitting=1;orthogonalLoop=1;jettySize=auto;html=1;exitX=0.5;exitY=1;exitDx=0;exitDy=0;entryX=0.5;entryY=0;entryDx=0;entryDy=0;fontFamily=Architects Daughter;fontSource=https%3A%2F%2Ffonts.googleapis.com%2Fcss%3Ffamily%3DArchitects%2BDaughter;" parent="aPG-wjut5bU0Uu7Rqg-r-76" source="aPG-wjut5bU0Uu7Rqg-r-27" target="aPG-wjut5bU0Uu7Rqg-r-8" edge="1">
          <mxGeometry relative="1" as="geometry" />
        </mxCell>
        <mxCell id="aPG-wjut5bU0Uu7Rqg-r-38" value="false" style="edgeLabel;html=1;align=center;verticalAlign=middle;resizable=0;points=[];sketch=1;hachureGap=4;jiggle=2;curveFitting=1;fontFamily=Comic Sans MS;fontSize=15;fontStyle=1" parent="aPG-wjut5bU0Uu7Rqg-r-36" vertex="1" connectable="0">
          <mxGeometry x="-0.2766" y="2" relative="1" as="geometry">
            <mxPoint as="offset" />
          </mxGeometry>
        </mxCell>
        <mxCell id="aPG-wjut5bU0Uu7Rqg-r-27" value="should_apply_reset" style="rhombus;whiteSpace=wrap;html=1;sketch=1;hachureGap=4;jiggle=2;curveFitting=1;fontFamily=Comic Sans MS;fontStyle=1;fontSize=15;" parent="aPG-wjut5bU0Uu7Rqg-r-76" vertex="1">
          <mxGeometry x="373.25" y="690" width="188" height="90" as="geometry" />
        </mxCell>
        <mxCell id="aPG-wjut5bU0Uu7Rqg-r-37" style="edgeStyle=orthogonalEdgeStyle;rounded=0;sketch=1;hachureGap=4;jiggle=2;curveFitting=1;orthogonalLoop=1;jettySize=auto;html=1;exitX=0.5;exitY=1;exitDx=0;exitDy=0;entryX=1;entryY=0.5;entryDx=0;entryDy=0;fontFamily=Architects Daughter;fontSource=https%3A%2F%2Ffonts.googleapis.com%2Fcss%3Ffamily%3DArchitects%2BDaughter;" parent="aPG-wjut5bU0Uu7Rqg-r-76" source="aPG-wjut5bU0Uu7Rqg-r-30" target="aPG-wjut5bU0Uu7Rqg-r-8" edge="1">
          <mxGeometry relative="1" as="geometry" />
        </mxCell>
        <mxCell id="aPG-wjut5bU0Uu7Rqg-r-30" value="LiveApplyReset::apply_reset" style="rounded=1;whiteSpace=wrap;html=1;sketch=1;hachureGap=4;jiggle=2;curveFitting=1;fontFamily=Comic Sans MS;fontSize=15;fontStyle=1;labelBackgroundColor=none;" parent="aPG-wjut5bU0Uu7Rqg-r-76" vertex="1">
          <mxGeometry x="650" y="690" width="261" height="60" as="geometry" />
        </mxCell>
        <mxCell id="aPG-wjut5bU0Uu7Rqg-r-31" style="edgeStyle=orthogonalEdgeStyle;rounded=0;sketch=1;hachureGap=4;jiggle=2;curveFitting=1;orthogonalLoop=1;jettySize=auto;html=1;exitX=1;exitY=0.5;exitDx=0;exitDy=0;entryX=0.01;entryY=0.65;entryDx=0;entryDy=0;entryPerimeter=0;fontFamily=Comic Sans MS;fontSize=15;" parent="aPG-wjut5bU0Uu7Rqg-r-76" source="aPG-wjut5bU0Uu7Rqg-r-27" target="aPG-wjut5bU0Uu7Rqg-r-30" edge="1">
          <mxGeometry relative="1" as="geometry" />
        </mxCell>
        <mxCell id="aPG-wjut5bU0Uu7Rqg-r-32" value="true" style="edgeLabel;html=1;align=center;verticalAlign=middle;resizable=0;points=[];sketch=1;hachureGap=4;jiggle=2;curveFitting=1;fontFamily=Comic Sans MS;fontStyle=1;fontSize=15;" parent="aPG-wjut5bU0Uu7Rqg-r-31" vertex="1" connectable="0">
          <mxGeometry x="0.1696" y="-1" relative="1" as="geometry">
            <mxPoint as="offset" />
          </mxGeometry>
        </mxCell>
        <mxCell id="aPG-wjut5bU0Uu7Rqg-r-44" value="&lt;font face=&quot;Comic Sans MS&quot; style=&quot;font-size: 15px;&quot;&gt;&lt;b&gt;ApplyFrom::NewFromDoc&lt;/b&gt;&lt;/font&gt;" style="edgeStyle=orthogonalEdgeStyle;rounded=0;sketch=1;hachureGap=4;jiggle=2;curveFitting=1;orthogonalLoop=1;jettySize=auto;html=1;exitX=1;exitY=0.5;exitDx=0;exitDy=0;entryX=0;entryY=0.5;entryDx=0;entryDy=0;fontFamily=Architects Daughter;fontSource=https%3A%2F%2Ffonts.googleapis.com%2Fcss%3Ffamily%3DArchitects%2BDaughter;" parent="aPG-wjut5bU0Uu7Rqg-r-76" source="aPG-wjut5bU0Uu7Rqg-r-41" target="aPG-wjut5bU0Uu7Rqg-r-13" edge="1">
          <mxGeometry x="1" y="51" relative="1" as="geometry">
            <mxPoint x="10" y="1" as="offset" />
          </mxGeometry>
        </mxCell>
        <mxCell id="aPG-wjut5bU0Uu7Rqg-r-45" style="edgeStyle=orthogonalEdgeStyle;rounded=0;sketch=1;hachureGap=4;jiggle=2;curveFitting=1;orthogonalLoop=1;jettySize=auto;html=1;exitX=0;exitY=0.5;exitDx=0;exitDy=0;fontFamily=Architects Daughter;fontSource=https%3A%2F%2Ffonts.googleapis.com%2Fcss%3Ffamily%3DArchitects%2BDaughter;" parent="aPG-wjut5bU0Uu7Rqg-r-76" source="aPG-wjut5bU0Uu7Rqg-r-41" target="aPG-wjut5bU0Uu7Rqg-r-14" edge="1">
          <mxGeometry relative="1" as="geometry" />
        </mxCell>
        <mxCell id="aPG-wjut5bU0Uu7Rqg-r-47" value="&lt;b style=&quot;font-family: &amp;quot;Comic Sans MS&amp;quot;; font-size: 15px;&quot;&gt;ApplyFrom::&lt;/b&gt;&lt;font face=&quot;Comic Sans MS&quot;&gt;&lt;span style=&quot;font-size: 15px;&quot;&gt;&lt;b&gt;UpdateFromDoc&lt;/b&gt;&lt;/span&gt;&lt;/font&gt;" style="edgeLabel;html=1;align=center;verticalAlign=middle;resizable=0;points=[];sketch=1;hachureGap=4;jiggle=2;curveFitting=1;fontFamily=Architects Daughter;fontSource=https%3A%2F%2Ffonts.googleapis.com%2Fcss%3Ffamily%3DArchitects%2BDaughter;" parent="aPG-wjut5bU0Uu7Rqg-r-45" vertex="1" connectable="0">
          <mxGeometry x="-0.3284" y="2" relative="1" as="geometry">
            <mxPoint x="-54" y="9" as="offset" />
          </mxGeometry>
        </mxCell>
        <mxCell id="aPG-wjut5bU0Uu7Rqg-r-41" value="ApplyFrom?" style="rhombus;whiteSpace=wrap;html=1;sketch=1;hachureGap=4;jiggle=2;curveFitting=1;fontFamily=Comic Sans MS;fontStyle=1;fontSize=15;" parent="aPG-wjut5bU0Uu7Rqg-r-76" vertex="1">
          <mxGeometry x="379.75" y="1100" width="188" height="90" as="geometry" />
        </mxCell>
        <mxCell id="aPG-wjut5bU0Uu7Rqg-r-48" style="edgeStyle=orthogonalEdgeStyle;rounded=0;sketch=1;hachureGap=4;jiggle=2;curveFitting=1;orthogonalLoop=1;jettySize=auto;html=1;exitX=0.5;exitY=1;exitDx=0;exitDy=0;entryX=0.529;entryY=0.017;entryDx=0;entryDy=0;entryPerimeter=0;fontFamily=Architects Daughter;fontSource=https%3A%2F%2Ffonts.googleapis.com%2Fcss%3Ffamily%3DArchitects%2BDaughter;" parent="aPG-wjut5bU0Uu7Rqg-r-76" source="aPG-wjut5bU0Uu7Rqg-r-14" target="aPG-wjut5bU0Uu7Rqg-r-15" edge="1">
          <mxGeometry relative="1" as="geometry" />
        </mxCell>
        <mxCell id="aPG-wjut5bU0Uu7Rqg-r-49" style="edgeStyle=orthogonalEdgeStyle;rounded=0;sketch=1;hachureGap=4;jiggle=2;curveFitting=1;orthogonalLoop=1;jettySize=auto;html=1;exitX=0.5;exitY=1;exitDx=0;exitDy=0;entryX=0.525;entryY=-0.067;entryDx=0;entryDy=0;entryPerimeter=0;fontFamily=Architects Daughter;fontSource=https%3A%2F%2Ffonts.googleapis.com%2Fcss%3Ffamily%3DArchitects%2BDaughter;" parent="aPG-wjut5bU0Uu7Rqg-r-76" source="aPG-wjut5bU0Uu7Rqg-r-13" target="aPG-wjut5bU0Uu7Rqg-r-15" edge="1">
          <mxGeometry relative="1" as="geometry" />
        </mxCell>
        <mxCell id="aPG-wjut5bU0Uu7Rqg-r-62" style="edgeStyle=orthogonalEdgeStyle;rounded=0;sketch=1;hachureGap=4;jiggle=2;curveFitting=1;orthogonalLoop=1;jettySize=auto;html=1;exitX=0;exitY=0.5;exitDx=0;exitDy=0;entryX=0;entryY=0.5;entryDx=0;entryDy=0;fontFamily=Architects Daughter;fontSource=https%3A%2F%2Ffonts.googleapis.com%2Fcss%3Ffamily%3DArchitects%2BDaughter;" parent="aPG-wjut5bU0Uu7Rqg-r-76" source="aPG-wjut5bU0Uu7Rqg-r-50" target="aPG-wjut5bU0Uu7Rqg-r-27" edge="1">
          <mxGeometry relative="1" as="geometry">
            <Array as="points">
              <mxPoint x="30" y="405" />
              <mxPoint x="30" y="735" />
            </Array>
          </mxGeometry>
        </mxCell>
        <mxCell id="aPG-wjut5bU0Uu7Rqg-r-63" value="&lt;font face=&quot;Comic Sans MS&quot; style=&quot;font-size: 15px;&quot;&gt;&lt;b&gt;true&lt;/b&gt;&lt;/font&gt;" style="edgeLabel;html=1;align=center;verticalAlign=middle;resizable=0;points=[];sketch=1;hachureGap=4;jiggle=2;curveFitting=1;fontFamily=Architects Daughter;fontSource=https%3A%2F%2Ffonts.googleapis.com%2Fcss%3Ffamily%3DArchitects%2BDaughter;" parent="aPG-wjut5bU0Uu7Rqg-r-62" vertex="1" connectable="0">
          <mxGeometry x="-0.7727" y="4" relative="1" as="geometry">
            <mxPoint x="73" y="-4" as="offset" />
          </mxGeometry>
        </mxCell>
        <mxCell id="aPG-wjut5bU0Uu7Rqg-r-50" value="is_some?" style="rhombus;whiteSpace=wrap;html=1;sketch=1;hachureGap=4;jiggle=2;curveFitting=1;fontFamily=Comic Sans MS;fontStyle=1;fontSize=15;" parent="aPG-wjut5bU0Uu7Rqg-r-76" vertex="1">
          <mxGeometry x="406.25" y="380" width="130" height="50" as="geometry" />
        </mxCell>
        <mxCell id="aPG-wjut5bU0Uu7Rqg-r-53" value="" style="edgeStyle=orthogonalEdgeStyle;rounded=0;sketch=1;hachureGap=4;jiggle=2;curveFitting=1;orthogonalLoop=1;jettySize=auto;html=1;fontFamily=Architects Daughter;fontSource=https%3A%2F%2Ffonts.googleapis.com%2Fcss%3Ffamily%3DArchitects%2BDaughter;" parent="aPG-wjut5bU0Uu7Rqg-r-76" source="aPG-wjut5bU0Uu7Rqg-r-52" target="aPG-wjut5bU0Uu7Rqg-r-7" edge="1">
          <mxGeometry relative="1" as="geometry" />
        </mxCell>
        <mxCell id="aPG-wjut5bU0Uu7Rqg-r-61" value="false" style="edgeLabel;html=1;align=center;verticalAlign=middle;resizable=0;points=[];sketch=1;hachureGap=4;jiggle=2;curveFitting=1;fontFamily=Comic Sans MS;fontSize=15;fontStyle=1" parent="aPG-wjut5bU0Uu7Rqg-r-53" vertex="1" connectable="0">
          <mxGeometry x="0.0238" relative="1" as="geometry">
            <mxPoint as="offset" />
          </mxGeometry>
        </mxCell>
        <mxCell id="aPG-wjut5bU0Uu7Rqg-r-52" value="has_prop_type?" style="rhombus;whiteSpace=wrap;html=1;sketch=1;hachureGap=4;jiggle=2;curveFitting=1;fontFamily=Comic Sans MS;fontStyle=1;fontSize=15;" parent="aPG-wjut5bU0Uu7Rqg-r-76" vertex="1">
          <mxGeometry x="393.75" y="570" width="160" height="60" as="geometry" />
        </mxCell>
        <mxCell id="aPG-wjut5bU0Uu7Rqg-r-64" value="LiveApply::apply END" style="rounded=1;whiteSpace=wrap;html=1;sketch=1;hachureGap=4;jiggle=2;curveFitting=1;fontFamily=Comic Sans MS;fontSize=15;fontStyle=1;labelBackgroundColor=none;fillColor=#dae8fc;strokeColor=#6c8ebf;gradientColor=#7ea6e0;" parent="aPG-wjut5bU0Uu7Rqg-r-76" vertex="1">
          <mxGeometry x="410.25" y="1430" width="130" height="60" as="geometry" />
        </mxCell>
        <mxCell id="aPG-wjut5bU0Uu7Rqg-r-67" style="edgeStyle=orthogonalEdgeStyle;rounded=0;sketch=1;hachureGap=4;jiggle=2;curveFitting=1;orthogonalLoop=1;jettySize=auto;html=1;exitX=0.5;exitY=1;exitDx=0;exitDy=0;entryX=0.5;entryY=0;entryDx=0;entryDy=0;fontFamily=Architects Daughter;fontSource=https%3A%2F%2Ffonts.googleapis.com%2Fcss%3Ffamily%3DArchitects%2BDaughter;" parent="aPG-wjut5bU0Uu7Rqg-r-76" source="aPG-wjut5bU0Uu7Rqg-r-66" target="aPG-wjut5bU0Uu7Rqg-r-24" edge="1">
          <mxGeometry relative="1" as="geometry" />
        </mxCell>
        <mxCell id="aPG-wjut5bU0Uu7Rqg-r-68" value="&lt;font face=&quot;Comic Sans MS&quot; style=&quot;font-size: 15px;&quot;&gt;&lt;b&gt;false&lt;/b&gt;&lt;/font&gt;" style="edgeLabel;html=1;align=center;verticalAlign=middle;resizable=0;points=[];sketch=1;hachureGap=4;jiggle=2;curveFitting=1;fontFamily=Architects Daughter;fontSource=https%3A%2F%2Ffonts.googleapis.com%2Fcss%3Ffamily%3DArchitects%2BDaughter;" parent="aPG-wjut5bU0Uu7Rqg-r-67" vertex="1" connectable="0">
          <mxGeometry x="-0.2667" y="-1" relative="1" as="geometry">
            <mxPoint as="offset" />
          </mxGeometry>
        </mxCell>
        <mxCell id="aPG-wjut5bU0Uu7Rqg-r-70" style="edgeStyle=orthogonalEdgeStyle;rounded=0;sketch=1;hachureGap=4;jiggle=2;curveFitting=1;orthogonalLoop=1;jettySize=auto;html=1;exitX=1;exitY=0.5;exitDx=0;exitDy=0;entryX=0;entryY=0.5;entryDx=0;entryDy=0;fontFamily=Architects Daughter;fontSource=https%3A%2F%2Ffonts.googleapis.com%2Fcss%3Ffamily%3DArchitects%2BDaughter;" parent="aPG-wjut5bU0Uu7Rqg-r-76" source="aPG-wjut5bU0Uu7Rqg-r-66" target="aPG-wjut5bU0Uu7Rqg-r-69" edge="1">
          <mxGeometry relative="1" as="geometry" />
        </mxCell>
        <mxCell id="aPG-wjut5bU0Uu7Rqg-r-71" value="&lt;font style=&quot;font-size: 15px;&quot; face=&quot;Comic Sans MS&quot;&gt;true&lt;/font&gt;" style="edgeLabel;html=1;align=center;verticalAlign=middle;resizable=0;points=[];sketch=1;hachureGap=4;jiggle=2;curveFitting=1;fontFamily=Architects Daughter;fontSource=https%3A%2F%2Ffonts.googleapis.com%2Fcss%3Ffamily%3DArchitects%2BDaughter;fontStyle=1" parent="aPG-wjut5bU0Uu7Rqg-r-70" vertex="1" connectable="0">
          <mxGeometry x="-0.0602" relative="1" as="geometry">
            <mxPoint as="offset" />
          </mxGeometry>
        </mxCell>
        <mxCell id="aPG-wjut5bU0Uu7Rqg-r-66" value="match LiveId?" style="rhombus;whiteSpace=wrap;html=1;sketch=1;hachureGap=4;jiggle=2;curveFitting=1;fontFamily=Comic Sans MS;fontStyle=1;fontSize=15;" parent="aPG-wjut5bU0Uu7Rqg-r-76" vertex="1">
          <mxGeometry x="707.75" y="450" width="160" height="60" as="geometry" />
        </mxCell>
        <mxCell id="aPG-wjut5bU0Uu7Rqg-r-73" style="edgeStyle=orthogonalEdgeStyle;rounded=0;sketch=1;hachureGap=4;jiggle=2;curveFitting=1;orthogonalLoop=1;jettySize=auto;html=1;exitX=0.5;exitY=1;exitDx=0;exitDy=0;fontFamily=Architects Daughter;fontSource=https%3A%2F%2Ffonts.googleapis.com%2Fcss%3Ffamily%3DArchitects%2BDaughter;" parent="aPG-wjut5bU0Uu7Rqg-r-76" source="aPG-wjut5bU0Uu7Rqg-r-69" target="aPG-wjut5bU0Uu7Rqg-r-27" edge="1">
          <mxGeometry relative="1" as="geometry">
            <Array as="points">
              <mxPoint x="1058" y="660" />
              <mxPoint x="467" y="660" />
            </Array>
          </mxGeometry>
        </mxCell>
        <mxCell id="aPG-wjut5bU0Uu7Rqg-r-69" value="WidgetRef::apply" style="rounded=1;whiteSpace=wrap;html=1;sketch=1;hachureGap=4;jiggle=2;curveFitting=1;fontFamily=Comic Sans MS;fontSize=15;fontStyle=1;labelBackgroundColor=none;" parent="aPG-wjut5bU0Uu7Rqg-r-76" vertex="1">
          <mxGeometry x="940" y="450" width="150" height="60" as="geometry" />
        </mxCell>
        <mxCell id="aPG-wjut5bU0Uu7Rqg-r-219" value="&lt;span style=&quot;font-size: 21px;&quot;&gt;LiveApply::apply&amp;nbsp;subprocess&lt;/span&gt;" style="text;html=1;align=left;verticalAlign=middle;whiteSpace=wrap;rounded=0;fontFamily=Comic Sans MS;fontSize=21;fontStyle=1;fillColor=#f5f5f5;gradientColor=#b3b3b3;strokeColor=#666666;sketch=1;curveFitting=1;jiggle=2;" parent="aPG-wjut5bU0Uu7Rqg-r-76" vertex="1">
          <mxGeometry width="290" height="30" as="geometry" />
        </mxCell>
        <mxCell id="O7qFsMUnvhCYVVgcGGIn-68" value="" style="group" parent="1" vertex="1" connectable="0">
          <mxGeometry x="-2000" y="60" width="1850" height="1230" as="geometry" />
        </mxCell>
        <mxCell id="O7qFsMUnvhCYVVgcGGIn-8" value="" style="rounded=0;whiteSpace=wrap;html=1;sketch=1;hachureGap=4;jiggle=2;curveFitting=1;fontFamily=Architects Daughter;fontSource=https%3A%2F%2Ffonts.googleapis.com%2Fcss%3Ffamily%3DArchitects%2BDaughter;" parent="O7qFsMUnvhCYVVgcGGIn-68" vertex="1">
          <mxGeometry width="1850" height="1230" as="geometry" />
        </mxCell>
        <mxCell id="aPG-wjut5bU0Uu7Rqg-r-138" style="edgeStyle=orthogonalEdgeStyle;rounded=0;sketch=1;hachureGap=4;jiggle=2;curveFitting=1;orthogonalLoop=1;jettySize=auto;html=1;exitX=0.5;exitY=1;exitDx=0;exitDy=0;fontFamily=Architects Daughter;fontSource=https%3A%2F%2Ffonts.googleapis.com%2Fcss%3Ffamily%3DArchitects%2BDaughter;" parent="O7qFsMUnvhCYVVgcGGIn-68" source="aPG-wjut5bU0Uu7Rqg-r-74" target="aPG-wjut5bU0Uu7Rqg-r-137" edge="1">
          <mxGeometry relative="1" as="geometry" />
        </mxCell>
        <mxCell id="aPG-wjut5bU0Uu7Rqg-r-74" value="app_main! START" style="rounded=1;whiteSpace=wrap;html=1;sketch=1;hachureGap=4;jiggle=2;curveFitting=1;fontFamily=Comic Sans MS;fontSize=15;fontStyle=1;labelBackgroundColor=none;fillColor=#f8cecc;strokeColor=#b85450;gradientColor=#ea6b66;" parent="O7qFsMUnvhCYVVgcGGIn-68" vertex="1">
          <mxGeometry x="1033" y="50" width="150" height="60" as="geometry" />
        </mxCell>
        <mxCell id="aPG-wjut5bU0Uu7Rqg-r-78" value="app_main! END" style="rounded=1;whiteSpace=wrap;html=1;sketch=1;hachureGap=4;jiggle=2;curveFitting=1;fontFamily=Comic Sans MS;fontSize=15;fontStyle=1;labelBackgroundColor=none;fillColor=#f8cecc;strokeColor=#b85450;gradientColor=#ea6b66;" parent="O7qFsMUnvhCYVVgcGGIn-68" vertex="1">
          <mxGeometry x="1280" y="150" width="157" height="60" as="geometry" />
        </mxCell>
        <mxCell id="aPG-wjut5bU0Uu7Rqg-r-178" style="edgeStyle=orthogonalEdgeStyle;rounded=0;sketch=1;hachureGap=4;jiggle=2;curveFitting=1;orthogonalLoop=1;jettySize=auto;html=1;exitX=0;exitY=0.5;exitDx=0;exitDy=0;entryX=1;entryY=0.5;entryDx=0;entryDy=0;fontFamily=Architects Daughter;fontSource=https%3A%2F%2Ffonts.googleapis.com%2Fcss%3Ffamily%3DArchitects%2BDaughter;" parent="O7qFsMUnvhCYVVgcGGIn-68" source="aPG-wjut5bU0Uu7Rqg-r-136" target="aPG-wjut5bU0Uu7Rqg-r-143" edge="1">
          <mxGeometry relative="1" as="geometry" />
        </mxCell>
        <mxCell id="aPG-wjut5bU0Uu7Rqg-r-179" value="&lt;font face=&quot;Comic Sans MS&quot; style=&quot;font-size: 15px;&quot;&gt;&lt;b&gt;callback&lt;/b&gt;&lt;/font&gt;" style="edgeLabel;html=1;align=center;verticalAlign=middle;resizable=0;points=[];sketch=1;hachureGap=4;jiggle=2;curveFitting=1;fontFamily=Architects Daughter;fontSource=https%3A%2F%2Ffonts.googleapis.com%2Fcss%3Ffamily%3DArchitects%2BDaughter;" parent="aPG-wjut5bU0Uu7Rqg-r-178" vertex="1" connectable="0">
          <mxGeometry x="0.0075" y="1" relative="1" as="geometry">
            <mxPoint as="offset" />
          </mxGeometry>
        </mxCell>
        <mxCell id="aPG-wjut5bU0Uu7Rqg-r-136" value="Cx::new" style="rounded=1;whiteSpace=wrap;html=1;sketch=1;hachureGap=4;jiggle=2;curveFitting=1;fontFamily=Comic Sans MS;fontSize=15;fontStyle=1;labelBackgroundColor=none;" parent="O7qFsMUnvhCYVVgcGGIn-68" vertex="1">
          <mxGeometry x="1038" y="260" width="140" height="60" as="geometry" />
        </mxCell>
        <mxCell id="aPG-wjut5bU0Uu7Rqg-r-141" style="edgeStyle=orthogonalEdgeStyle;rounded=0;sketch=1;hachureGap=4;jiggle=2;curveFitting=1;orthogonalLoop=1;jettySize=auto;html=1;exitX=0.5;exitY=1;exitDx=0;exitDy=0;entryX=0.5;entryY=0;entryDx=0;entryDy=0;fontFamily=Architects Daughter;fontSource=https%3A%2F%2Ffonts.googleapis.com%2Fcss%3Ffamily%3DArchitects%2BDaughter;" parent="O7qFsMUnvhCYVVgcGGIn-68" source="aPG-wjut5bU0Uu7Rqg-r-137" target="aPG-wjut5bU0Uu7Rqg-r-136" edge="1">
          <mxGeometry relative="1" as="geometry" />
        </mxCell>
        <mxCell id="aPG-wjut5bU0Uu7Rqg-r-142" value="&lt;font face=&quot;Comic Sans MS&quot; style=&quot;font-size: 15px;&quot;&gt;&lt;b&gt;false&lt;/b&gt;&lt;/font&gt;" style="edgeLabel;html=1;align=center;verticalAlign=middle;resizable=0;points=[];sketch=1;hachureGap=4;jiggle=2;curveFitting=1;fontFamily=Architects Daughter;fontSource=https%3A%2F%2Ffonts.googleapis.com%2Fcss%3Ffamily%3DArchitects%2BDaughter;" parent="aPG-wjut5bU0Uu7Rqg-r-141" vertex="1" connectable="0">
          <mxGeometry x="0.1" y="1" relative="1" as="geometry">
            <mxPoint x="-1" y="-8" as="offset" />
          </mxGeometry>
        </mxCell>
        <mxCell id="aPG-wjut5bU0Uu7Rqg-r-148" style="edgeStyle=orthogonalEdgeStyle;rounded=0;sketch=1;hachureGap=4;jiggle=2;curveFitting=1;orthogonalLoop=1;jettySize=auto;html=1;exitX=1;exitY=0.5;exitDx=0;exitDy=0;entryX=0;entryY=0.5;entryDx=0;entryDy=0;fontFamily=Architects Daughter;fontSource=https%3A%2F%2Ffonts.googleapis.com%2Fcss%3Ffamily%3DArchitects%2BDaughter;" parent="O7qFsMUnvhCYVVgcGGIn-68" source="aPG-wjut5bU0Uu7Rqg-r-137" target="aPG-wjut5bU0Uu7Rqg-r-78" edge="1">
          <mxGeometry relative="1" as="geometry" />
        </mxCell>
        <mxCell id="aPG-wjut5bU0Uu7Rqg-r-149" value="&lt;font face=&quot;Comic Sans MS&quot; style=&quot;font-size: 15px;&quot;&gt;&lt;b&gt;true&lt;/b&gt;&lt;/font&gt;" style="edgeLabel;html=1;align=center;verticalAlign=middle;resizable=0;points=[];sketch=1;hachureGap=4;jiggle=2;curveFitting=1;fontFamily=Architects Daughter;fontSource=https%3A%2F%2Ffonts.googleapis.com%2Fcss%3Ffamily%3DArchitects%2BDaughter;" parent="aPG-wjut5bU0Uu7Rqg-r-148" vertex="1" connectable="0">
          <mxGeometry x="-0.0503" relative="1" as="geometry">
            <mxPoint x="1" as="offset" />
          </mxGeometry>
        </mxCell>
        <mxCell id="aPG-wjut5bU0Uu7Rqg-r-137" value="Cx::pre_start?" style="rhombus;whiteSpace=wrap;html=1;sketch=1;hachureGap=4;jiggle=2;curveFitting=1;fontFamily=Comic Sans MS;fontStyle=1;fontSize=15;" parent="O7qFsMUnvhCYVVgcGGIn-68" vertex="1">
          <mxGeometry x="1025.5" y="150" width="165" height="60" as="geometry" />
        </mxCell>
        <mxCell id="aPG-wjut5bU0Uu7Rqg-r-152" style="edgeStyle=orthogonalEdgeStyle;rounded=0;sketch=1;hachureGap=4;jiggle=2;curveFitting=1;orthogonalLoop=1;jettySize=auto;html=1;exitX=0.5;exitY=1;exitDx=0;exitDy=0;entryX=0.5;entryY=0;entryDx=0;entryDy=0;fontFamily=Architects Daughter;fontSource=https%3A%2F%2Ffonts.googleapis.com%2Fcss%3Ffamily%3DArchitects%2BDaughter;" parent="O7qFsMUnvhCYVVgcGGIn-68" source="aPG-wjut5bU0Uu7Rqg-r-136" target="aPG-wjut5bU0Uu7Rqg-r-144" edge="1">
          <mxGeometry relative="1" as="geometry" />
        </mxCell>
        <mxCell id="aPG-wjut5bU0Uu7Rqg-r-187" style="edgeStyle=orthogonalEdgeStyle;rounded=0;sketch=1;hachureGap=4;jiggle=2;curveFitting=1;orthogonalLoop=1;jettySize=auto;html=1;exitX=0;exitY=0.5;exitDx=0;exitDy=0;entryX=1;entryY=0.5;entryDx=0;entryDy=0;fontFamily=Architects Daughter;fontSource=https%3A%2F%2Ffonts.googleapis.com%2Fcss%3Ffamily%3DArchitects%2BDaughter;" parent="O7qFsMUnvhCYVVgcGGIn-68" source="aPG-wjut5bU0Uu7Rqg-r-143" target="aPG-wjut5bU0Uu7Rqg-r-186" edge="1">
          <mxGeometry relative="1" as="geometry">
            <mxPoint x="600" y="290" as="sourcePoint" />
          </mxGeometry>
        </mxCell>
        <mxCell id="aPG-wjut5bU0Uu7Rqg-r-143" value="event_handler" style="rounded=1;whiteSpace=wrap;html=1;sketch=1;hachureGap=4;jiggle=2;curveFitting=1;fontFamily=Comic Sans MS;fontSize=15;fontStyle=1;labelBackgroundColor=none;fillColor=#d5e8d4;gradientColor=#97d077;strokeColor=#82b366;" parent="O7qFsMUnvhCYVVgcGGIn-68" vertex="1">
          <mxGeometry x="710" y="260" width="195" height="60" as="geometry" />
        </mxCell>
        <mxCell id="aPG-wjut5bU0Uu7Rqg-r-153" style="edgeStyle=orthogonalEdgeStyle;rounded=0;sketch=1;hachureGap=4;jiggle=2;curveFitting=1;orthogonalLoop=1;jettySize=auto;html=1;exitX=1;exitY=0.5;exitDx=0;exitDy=0;entryX=0;entryY=0.5;entryDx=0;entryDy=0;fontFamily=Architects Daughter;fontSource=https%3A%2F%2Ffonts.googleapis.com%2Fcss%3Ffamily%3DArchitects%2BDaughter;" parent="O7qFsMUnvhCYVVgcGGIn-68" source="aPG-wjut5bU0Uu7Rqg-r-144" target="aPG-wjut5bU0Uu7Rqg-r-145" edge="1">
          <mxGeometry relative="1" as="geometry" />
        </mxCell>
        <mxCell id="aPG-wjut5bU0Uu7Rqg-r-144" value="App::register_main_module&lt;br&gt;(LiveNew::register_main_module)" style="rounded=1;whiteSpace=wrap;html=1;sketch=1;hachureGap=4;jiggle=2;curveFitting=1;fontFamily=Comic Sans MS;fontSize=15;fontStyle=1;labelBackgroundColor=none;" parent="O7qFsMUnvhCYVVgcGGIn-68" vertex="1">
          <mxGeometry x="978" y="360" width="260" height="60" as="geometry" />
        </mxCell>
        <mxCell id="aPG-wjut5bU0Uu7Rqg-r-158" style="edgeStyle=orthogonalEdgeStyle;rounded=0;sketch=1;hachureGap=4;jiggle=2;curveFitting=1;orthogonalLoop=1;jettySize=auto;html=1;exitX=0.5;exitY=1;exitDx=0;exitDy=0;fontFamily=Architects Daughter;fontSource=https%3A%2F%2Ffonts.googleapis.com%2Fcss%3Ffamily%3DArchitects%2BDaughter;" parent="O7qFsMUnvhCYVVgcGGIn-68" source="aPG-wjut5bU0Uu7Rqg-r-145" target="aPG-wjut5bU0Uu7Rqg-r-157" edge="1">
          <mxGeometry relative="1" as="geometry" />
        </mxCell>
        <mxCell id="aPG-wjut5bU0Uu7Rqg-r-145" value="LiveNew::live_type_info" style="rounded=1;whiteSpace=wrap;html=1;sketch=1;hachureGap=4;jiggle=2;curveFitting=1;fontFamily=Comic Sans MS;fontSize=15;fontStyle=1;labelBackgroundColor=none;" parent="O7qFsMUnvhCYVVgcGGIn-68" vertex="1">
          <mxGeometry x="1303" y="360" width="200" height="60" as="geometry" />
        </mxCell>
        <mxCell id="aPG-wjut5bU0Uu7Rqg-r-160" style="edgeStyle=orthogonalEdgeStyle;rounded=0;sketch=1;hachureGap=4;jiggle=2;curveFitting=1;orthogonalLoop=1;jettySize=auto;html=1;exitX=0.5;exitY=1;exitDx=0;exitDy=0;entryX=0.5;entryY=0;entryDx=0;entryDy=0;fontFamily=Architects Daughter;fontSource=https%3A%2F%2Ffonts.googleapis.com%2Fcss%3Ffamily%3DArchitects%2BDaughter;" parent="O7qFsMUnvhCYVVgcGGIn-68" source="aPG-wjut5bU0Uu7Rqg-r-154" target="aPG-wjut5bU0Uu7Rqg-r-156" edge="1">
          <mxGeometry relative="1" as="geometry" />
        </mxCell>
        <mxCell id="aPG-wjut5bU0Uu7Rqg-r-154" value="Cx::init_cx_os" style="rounded=1;whiteSpace=wrap;html=1;sketch=1;hachureGap=4;jiggle=2;curveFitting=1;fontFamily=Comic Sans MS;fontSize=15;fontStyle=1;labelBackgroundColor=none;" parent="O7qFsMUnvhCYVVgcGGIn-68" vertex="1">
          <mxGeometry x="1025.5" y="830" width="177" height="60" as="geometry" />
        </mxCell>
        <mxCell id="aPG-wjut5bU0Uu7Rqg-r-182" style="edgeStyle=orthogonalEdgeStyle;rounded=0;sketch=1;hachureGap=4;jiggle=2;curveFitting=1;orthogonalLoop=1;jettySize=auto;html=1;exitX=0;exitY=0.5;exitDx=0;exitDy=0;entryX=1;entryY=0.5;entryDx=0;entryDy=0;fontFamily=Architects Daughter;fontSource=https%3A%2F%2Ffonts.googleapis.com%2Fcss%3Ffamily%3DArchitects%2BDaughter;" parent="O7qFsMUnvhCYVVgcGGIn-68" target="aPG-wjut5bU0Uu7Rqg-r-181" edge="1">
          <mxGeometry relative="1" as="geometry">
            <mxPoint x="1020.5" y="950" as="sourcePoint" />
            <mxPoint x="918" y="950" as="targetPoint" />
          </mxGeometry>
        </mxCell>
        <mxCell id="O7qFsMUnvhCYVVgcGGIn-3" value="internal logic" style="edgeLabel;html=1;align=center;verticalAlign=middle;resizable=0;points=[];sketch=1;hachureGap=4;jiggle=2;curveFitting=1;fontFamily=Comic Sans MS;fontSize=15;fontStyle=1" parent="aPG-wjut5bU0Uu7Rqg-r-182" vertex="1" connectable="0">
          <mxGeometry x="0.1805" y="2" relative="1" as="geometry">
            <mxPoint x="-12" y="16" as="offset" />
          </mxGeometry>
        </mxCell>
        <mxCell id="O7qFsMUnvhCYVVgcGGIn-1" style="edgeStyle=orthogonalEdgeStyle;rounded=0;orthogonalLoop=1;jettySize=auto;html=1;exitX=0.5;exitY=1;exitDx=0;exitDy=0;entryX=0.5;entryY=0;entryDx=0;entryDy=0;sketch=1;curveFitting=1;jiggle=2;" parent="O7qFsMUnvhCYVVgcGGIn-68" source="aPG-wjut5bU0Uu7Rqg-r-156" target="aPG-wjut5bU0Uu7Rqg-r-162" edge="1">
          <mxGeometry relative="1" as="geometry" />
        </mxCell>
        <mxCell id="aPG-wjut5bU0Uu7Rqg-r-156" value="Cx::event_loop" style="rounded=1;whiteSpace=wrap;html=1;sketch=1;hachureGap=4;jiggle=2;curveFitting=1;fontFamily=Comic Sans MS;fontSize=15;fontStyle=1;labelBackgroundColor=none;" parent="O7qFsMUnvhCYVVgcGGIn-68" vertex="1">
          <mxGeometry x="1019.5" y="920" width="177" height="60" as="geometry" />
        </mxCell>
        <mxCell id="aPG-wjut5bU0Uu7Rqg-r-165" style="edgeStyle=orthogonalEdgeStyle;rounded=0;sketch=1;hachureGap=4;jiggle=2;curveFitting=1;orthogonalLoop=1;jettySize=auto;html=1;exitX=1;exitY=0.5;exitDx=0;exitDy=0;entryX=0;entryY=0.5;entryDx=0;entryDy=0;fontFamily=Architects Daughter;fontSource=https%3A%2F%2Ffonts.googleapis.com%2Fcss%3Ffamily%3DArchitects%2BDaughter;" parent="O7qFsMUnvhCYVVgcGGIn-68" source="aPG-wjut5bU0Uu7Rqg-r-157" target="aPG-wjut5bU0Uu7Rqg-r-164" edge="1">
          <mxGeometry relative="1" as="geometry" />
        </mxCell>
        <mxCell id="aPG-wjut5bU0Uu7Rqg-r-157" value="live_design&lt;br&gt;(live_design marco)" style="rounded=1;whiteSpace=wrap;html=1;sketch=1;hachureGap=4;jiggle=2;curveFitting=1;fontFamily=Comic Sans MS;fontSize=15;fontStyle=1;labelBackgroundColor=none;" parent="O7qFsMUnvhCYVVgcGGIn-68" vertex="1">
          <mxGeometry x="1019.5" y="490" width="177" height="60" as="geometry" />
        </mxCell>
        <mxCell id="aPG-wjut5bU0Uu7Rqg-r-162" value="app_main! END" style="rounded=1;whiteSpace=wrap;html=1;sketch=1;hachureGap=4;jiggle=2;curveFitting=1;fontFamily=Comic Sans MS;fontSize=15;fontStyle=1;labelBackgroundColor=none;fillColor=#f8cecc;strokeColor=#b85450;gradientColor=#ea6b66;" parent="O7qFsMUnvhCYVVgcGGIn-68" vertex="1">
          <mxGeometry x="1029.5" y="1040" width="157" height="60" as="geometry" />
        </mxCell>
        <mxCell id="aPG-wjut5bU0Uu7Rqg-r-173" style="edgeStyle=orthogonalEdgeStyle;rounded=0;sketch=1;hachureGap=4;jiggle=2;curveFitting=1;orthogonalLoop=1;jettySize=auto;html=1;exitX=1;exitY=0.5;exitDx=0;exitDy=0;entryX=0;entryY=0.5;entryDx=0;entryDy=0;fontFamily=Architects Daughter;fontSource=https%3A%2F%2Ffonts.googleapis.com%2Fcss%3Ffamily%3DArchitects%2BDaughter;" parent="O7qFsMUnvhCYVVgcGGIn-68" source="aPG-wjut5bU0Uu7Rqg-r-164" target="aPG-wjut5bU0Uu7Rqg-r-172" edge="1">
          <mxGeometry relative="1" as="geometry" />
        </mxCell>
        <mxCell id="aPG-wjut5bU0Uu7Rqg-r-164" value="App::live_design_with&lt;div&gt;(LiveNew::&lt;span style=&quot;background-color: initial;&quot;&gt;live_design_with&lt;/span&gt;&lt;span style=&quot;background-color: initial;&quot;&gt;)&lt;/span&gt;&lt;/div&gt;" style="rounded=1;whiteSpace=wrap;html=1;sketch=1;hachureGap=4;jiggle=2;curveFitting=1;fontFamily=Comic Sans MS;fontSize=15;fontStyle=1;labelBackgroundColor=none;" parent="O7qFsMUnvhCYVVgcGGIn-68" vertex="1">
          <mxGeometry x="1243" y="490" width="217" height="60" as="geometry" />
        </mxCell>
        <mxCell id="aPG-wjut5bU0Uu7Rqg-r-169" style="edgeStyle=orthogonalEdgeStyle;rounded=0;sketch=1;hachureGap=4;jiggle=2;curveFitting=1;orthogonalLoop=1;jettySize=auto;html=1;exitX=0.5;exitY=1;exitDx=0;exitDy=0;entryX=0.5;entryY=0;entryDx=0;entryDy=0;fontFamily=Architects Daughter;fontSource=https%3A%2F%2Ffonts.googleapis.com%2Fcss%3Ffamily%3DArchitects%2BDaughter;" parent="O7qFsMUnvhCYVVgcGGIn-68" source="aPG-wjut5bU0Uu7Rqg-r-166" target="aPG-wjut5bU0Uu7Rqg-r-168" edge="1">
          <mxGeometry relative="1" as="geometry" />
        </mxCell>
        <mxCell id="aPG-wjut5bU0Uu7Rqg-r-166" value="App::live_type_info&lt;br&gt;(LiveNew::live_type_info)" style="rounded=1;whiteSpace=wrap;html=1;sketch=1;hachureGap=4;jiggle=2;curveFitting=1;fontFamily=Comic Sans MS;fontSize=15;fontStyle=1;labelBackgroundColor=none;" parent="O7qFsMUnvhCYVVgcGGIn-68" vertex="1">
          <mxGeometry x="1257" y="650" width="200" height="60" as="geometry" />
        </mxCell>
        <mxCell id="aPG-wjut5bU0Uu7Rqg-r-171" style="edgeStyle=orthogonalEdgeStyle;rounded=0;sketch=1;hachureGap=4;jiggle=2;curveFitting=1;orthogonalLoop=1;jettySize=auto;html=1;exitX=0;exitY=0.5;exitDx=0;exitDy=0;entryX=0.5;entryY=0;entryDx=0;entryDy=0;fontFamily=Architects Daughter;fontSource=https%3A%2F%2Ffonts.googleapis.com%2Fcss%3Ffamily%3DArchitects%2BDaughter;" parent="O7qFsMUnvhCYVVgcGGIn-68" source="aPG-wjut5bU0Uu7Rqg-r-168" target="aPG-wjut5bU0Uu7Rqg-r-154" edge="1">
          <mxGeometry relative="1" as="geometry" />
        </mxCell>
        <mxCell id="aPG-wjut5bU0Uu7Rqg-r-168" value="Cx::register_live_body" style="rounded=1;whiteSpace=wrap;html=1;sketch=1;hachureGap=4;jiggle=2;curveFitting=1;fontFamily=Comic Sans MS;fontSize=15;fontStyle=1;labelBackgroundColor=none;" parent="O7qFsMUnvhCYVVgcGGIn-68" vertex="1">
          <mxGeometry x="1257" y="747" width="200" height="60" as="geometry" />
        </mxCell>
        <mxCell id="aPG-wjut5bU0Uu7Rqg-r-176" style="edgeStyle=orthogonalEdgeStyle;rounded=0;sketch=1;hachureGap=4;jiggle=2;curveFitting=1;orthogonalLoop=1;jettySize=auto;html=1;exitX=0.5;exitY=1;exitDx=0;exitDy=0;entryX=0.5;entryY=0;entryDx=0;entryDy=0;fontFamily=Architects Daughter;fontSource=https%3A%2F%2Ffonts.googleapis.com%2Fcss%3Ffamily%3DArchitects%2BDaughter;" parent="O7qFsMUnvhCYVVgcGGIn-68" source="aPG-wjut5bU0Uu7Rqg-r-172" target="aPG-wjut5bU0Uu7Rqg-r-174" edge="1">
          <mxGeometry relative="1" as="geometry" />
        </mxCell>
        <mxCell id="aPG-wjut5bU0Uu7Rqg-r-172" value="&amp;lt;Self as LiveRegister&amp;gt;::live_register" style="rounded=1;whiteSpace=wrap;html=1;sketch=1;hachureGap=4;jiggle=2;curveFitting=1;fontFamily=Comic Sans MS;fontSize=15;fontStyle=1;labelBackgroundColor=none;" parent="O7qFsMUnvhCYVVgcGGIn-68" vertex="1">
          <mxGeometry x="1497" y="490" width="300" height="60" as="geometry" />
        </mxCell>
        <mxCell id="aPG-wjut5bU0Uu7Rqg-r-177" style="edgeStyle=orthogonalEdgeStyle;rounded=0;sketch=1;hachureGap=4;jiggle=2;curveFitting=1;orthogonalLoop=1;jettySize=auto;html=1;exitX=0;exitY=0.5;exitDx=0;exitDy=0;entryX=0.5;entryY=0;entryDx=0;entryDy=0;fontFamily=Architects Daughter;fontSource=https%3A%2F%2Ffonts.googleapis.com%2Fcss%3Ffamily%3DArchitects%2BDaughter;" parent="O7qFsMUnvhCYVVgcGGIn-68" source="aPG-wjut5bU0Uu7Rqg-r-174" target="aPG-wjut5bU0Uu7Rqg-r-166" edge="1">
          <mxGeometry relative="1" as="geometry" />
        </mxCell>
        <mxCell id="aPG-wjut5bU0Uu7Rqg-r-174" value="&amp;lt;WidgetRef as LiveNew&amp;gt;::live_design_with" style="rounded=1;whiteSpace=wrap;html=1;sketch=1;hachureGap=4;jiggle=2;curveFitting=1;fontFamily=Comic Sans MS;fontSize=15;fontStyle=1;labelBackgroundColor=none;" parent="O7qFsMUnvhCYVVgcGGIn-68" vertex="1">
          <mxGeometry x="1470" y="595" width="350" height="60" as="geometry" />
        </mxCell>
        <mxCell id="aPG-wjut5bU0Uu7Rqg-r-180" value="#[cfg(not(any(target_arch = &quot;wasm32&quot;, target_os=&quot;android&quot;, target_env=&quot;ohos&quot;)))]&lt;br style=&quot;font-size: 18px;&quot;&gt;app_main!" style="text;html=1;align=left;verticalAlign=middle;whiteSpace=wrap;rounded=0;fontFamily=Comic Sans MS;fontSize=18;fontStyle=1;sketch=1;curveFitting=1;jiggle=2;" parent="O7qFsMUnvhCYVVgcGGIn-68" vertex="1">
          <mxGeometry y="40" width="1000" height="30" as="geometry" />
        </mxCell>
        <mxCell id="aPG-wjut5bU0Uu7Rqg-r-184" style="edgeStyle=orthogonalEdgeStyle;rounded=0;sketch=1;hachureGap=4;jiggle=2;curveFitting=1;orthogonalLoop=1;jettySize=auto;html=1;exitX=0.5;exitY=0;exitDx=0;exitDy=0;entryX=0.5;entryY=1;entryDx=0;entryDy=0;fontFamily=Architects Daughter;fontSource=https%3A%2F%2Ffonts.googleapis.com%2Fcss%3Ffamily%3DArchitects%2BDaughter;" parent="O7qFsMUnvhCYVVgcGGIn-68" source="aPG-wjut5bU0Uu7Rqg-r-181" target="aPG-wjut5bU0Uu7Rqg-r-143" edge="1">
          <mxGeometry relative="1" as="geometry" />
        </mxCell>
        <mxCell id="aPG-wjut5bU0Uu7Rqg-r-185" value="&lt;font face=&quot;Comic Sans MS&quot; style=&quot;font-size: 15px;&quot;&gt;&lt;b&gt;call&lt;/b&gt;&lt;/font&gt;" style="edgeLabel;html=1;align=center;verticalAlign=middle;resizable=0;points=[];sketch=1;hachureGap=4;jiggle=2;curveFitting=1;fontFamily=Architects Daughter;fontSource=https%3A%2F%2Ffonts.googleapis.com%2Fcss%3Ffamily%3DArchitects%2BDaughter;" parent="aPG-wjut5bU0Uu7Rqg-r-184" vertex="1" connectable="0">
          <mxGeometry x="-0.2166" y="1" relative="1" as="geometry">
            <mxPoint x="1" as="offset" />
          </mxGeometry>
        </mxCell>
        <mxCell id="aPG-wjut5bU0Uu7Rqg-r-181" value="Cx::call_event_handler&lt;br&gt;(Event::Startup)" style="rounded=1;whiteSpace=wrap;html=1;sketch=1;hachureGap=4;jiggle=2;curveFitting=1;fontFamily=Comic Sans MS;fontSize=15;fontStyle=1;labelBackgroundColor=none;" parent="O7qFsMUnvhCYVVgcGGIn-68" vertex="1">
          <mxGeometry x="750" y="820" width="197" height="60" as="geometry" />
        </mxCell>
        <mxCell id="aPG-wjut5bU0Uu7Rqg-r-192" style="edgeStyle=orthogonalEdgeStyle;rounded=0;sketch=1;hachureGap=4;jiggle=2;curveFitting=1;orthogonalLoop=1;jettySize=auto;html=1;exitX=0.5;exitY=1;exitDx=0;exitDy=0;entryX=0.5;entryY=0;entryDx=0;entryDy=0;fontFamily=Architects Daughter;fontSource=https%3A%2F%2Ffonts.googleapis.com%2Fcss%3Ffamily%3DArchitects%2BDaughter;" parent="O7qFsMUnvhCYVVgcGGIn-68" source="aPG-wjut5bU0Uu7Rqg-r-186" target="aPG-wjut5bU0Uu7Rqg-r-191" edge="1">
          <mxGeometry relative="1" as="geometry" />
        </mxCell>
        <mxCell id="aPG-wjut5bU0Uu7Rqg-r-197" value="&lt;font face=&quot;Comic Sans MS&quot; style=&quot;font-size: 15px;&quot;&gt;&lt;b&gt;true&lt;/b&gt;&lt;/font&gt;" style="edgeLabel;html=1;align=center;verticalAlign=middle;resizable=0;points=[];sketch=1;hachureGap=4;jiggle=2;curveFitting=1;fontFamily=Architects Daughter;fontSource=https%3A%2F%2Ffonts.googleapis.com%2Fcss%3Ffamily%3DArchitects%2BDaughter;" parent="aPG-wjut5bU0Uu7Rqg-r-192" vertex="1" connectable="0">
          <mxGeometry x="-0.3515" relative="1" as="geometry">
            <mxPoint x="1" as="offset" />
          </mxGeometry>
        </mxCell>
        <mxCell id="aPG-wjut5bU0Uu7Rqg-r-207" style="edgeStyle=orthogonalEdgeStyle;rounded=0;sketch=1;hachureGap=4;jiggle=2;curveFitting=1;orthogonalLoop=1;jettySize=auto;html=1;exitX=0;exitY=0.5;exitDx=0;exitDy=0;entryX=0.5;entryY=0;entryDx=0;entryDy=0;fontFamily=Architects Daughter;fontSource=https%3A%2F%2Ffonts.googleapis.com%2Fcss%3Ffamily%3DArchitects%2BDaughter;" parent="O7qFsMUnvhCYVVgcGGIn-68" source="aPG-wjut5bU0Uu7Rqg-r-186" target="aPG-wjut5bU0Uu7Rqg-r-189" edge="1">
          <mxGeometry relative="1" as="geometry">
            <Array as="points">
              <mxPoint x="200" y="290" />
            </Array>
          </mxGeometry>
        </mxCell>
        <mxCell id="aPG-wjut5bU0Uu7Rqg-r-208" value="&lt;font face=&quot;Comic Sans MS&quot; style=&quot;font-size: 15px;&quot;&gt;&lt;b&gt;false&lt;/b&gt;&lt;/font&gt;" style="edgeLabel;html=1;align=center;verticalAlign=middle;resizable=0;points=[];sketch=1;hachureGap=4;jiggle=2;curveFitting=1;fontFamily=Architects Daughter;fontSource=https%3A%2F%2Ffonts.googleapis.com%2Fcss%3Ffamily%3DArchitects%2BDaughter;" parent="aPG-wjut5bU0Uu7Rqg-r-207" vertex="1" connectable="0">
          <mxGeometry x="-0.8136" y="2" relative="1" as="geometry">
            <mxPoint as="offset" />
          </mxGeometry>
        </mxCell>
        <mxCell id="aPG-wjut5bU0Uu7Rqg-r-186" value="Event::Startup?" style="rhombus;whiteSpace=wrap;html=1;sketch=1;hachureGap=4;jiggle=2;curveFitting=1;fontFamily=Comic Sans MS;fontStyle=1;fontSize=15;" parent="O7qFsMUnvhCYVVgcGGIn-68" vertex="1">
          <mxGeometry x="340" y="260" width="165" height="60" as="geometry" />
        </mxCell>
        <mxCell id="aPG-wjut5bU0Uu7Rqg-r-210" style="edgeStyle=orthogonalEdgeStyle;rounded=0;sketch=1;hachureGap=4;jiggle=2;curveFitting=1;orthogonalLoop=1;jettySize=auto;html=1;exitX=0.5;exitY=1;exitDx=0;exitDy=0;entryX=0.5;entryY=0;entryDx=0;entryDy=0;fontFamily=Architects Daughter;fontSource=https%3A%2F%2Ffonts.googleapis.com%2Fcss%3Ffamily%3DArchitects%2BDaughter;" parent="O7qFsMUnvhCYVVgcGGIn-68" source="aPG-wjut5bU0Uu7Rqg-r-189" target="aPG-wjut5bU0Uu7Rqg-r-209" edge="1">
          <mxGeometry relative="1" as="geometry" />
        </mxCell>
        <mxCell id="aPG-wjut5bU0Uu7Rqg-r-211" value="&lt;font face=&quot;Comic Sans MS&quot; style=&quot;font-size: 15px;&quot;&gt;&lt;b&gt;true&lt;/b&gt;&lt;/font&gt;" style="edgeLabel;html=1;align=center;verticalAlign=middle;resizable=0;points=[];sketch=1;hachureGap=4;jiggle=2;curveFitting=1;fontFamily=Architects Daughter;fontSource=https%3A%2F%2Ffonts.googleapis.com%2Fcss%3Ffamily%3DArchitects%2BDaughter;" parent="aPG-wjut5bU0Uu7Rqg-r-210" vertex="1" connectable="0">
          <mxGeometry x="-0.1636" y="1" relative="1" as="geometry">
            <mxPoint as="offset" />
          </mxGeometry>
        </mxCell>
        <mxCell id="O7qFsMUnvhCYVVgcGGIn-4" style="edgeStyle=orthogonalEdgeStyle;rounded=0;sketch=1;hachureGap=4;jiggle=2;curveFitting=1;orthogonalLoop=1;jettySize=auto;html=1;exitX=0;exitY=0.5;exitDx=0;exitDy=0;entryX=0;entryY=0.5;entryDx=0;entryDy=0;fontFamily=Architects Daughter;fontSource=https%3A%2F%2Ffonts.googleapis.com%2Fcss%3Ffamily%3DArchitects%2BDaughter;" parent="O7qFsMUnvhCYVVgcGGIn-68" source="aPG-wjut5bU0Uu7Rqg-r-189" target="aPG-wjut5bU0Uu7Rqg-r-212" edge="1">
          <mxGeometry relative="1" as="geometry">
            <Array as="points">
              <mxPoint x="80" y="805" />
              <mxPoint x="80" y="1150" />
            </Array>
          </mxGeometry>
        </mxCell>
        <mxCell id="O7qFsMUnvhCYVVgcGGIn-5" value="&lt;font face=&quot;Comic Sans MS&quot; style=&quot;font-size: 15px;&quot;&gt;&lt;b&gt;false&lt;/b&gt;&lt;/font&gt;" style="edgeLabel;html=1;align=center;verticalAlign=middle;resizable=0;points=[];sketch=1;hachureGap=4;jiggle=2;curveFitting=1;fontFamily=Architects Daughter;fontSource=https%3A%2F%2Ffonts.googleapis.com%2Fcss%3Ffamily%3DArchitects%2BDaughter;" parent="O7qFsMUnvhCYVVgcGGIn-4" vertex="1" connectable="0">
          <mxGeometry x="-0.6434" relative="1" as="geometry">
            <mxPoint y="-6" as="offset" />
          </mxGeometry>
        </mxCell>
        <mxCell id="aPG-wjut5bU0Uu7Rqg-r-189" value="Event::LiveEdit?" style="rhombus;whiteSpace=wrap;html=1;sketch=1;hachureGap=4;jiggle=2;curveFitting=1;fontFamily=Comic Sans MS;fontStyle=1;fontSize=15;" parent="O7qFsMUnvhCYVVgcGGIn-68" vertex="1">
          <mxGeometry x="117.5" y="775" width="165" height="60" as="geometry" />
        </mxCell>
        <mxCell id="aPG-wjut5bU0Uu7Rqg-r-194" style="edgeStyle=orthogonalEdgeStyle;rounded=0;sketch=1;hachureGap=4;jiggle=2;curveFitting=1;orthogonalLoop=1;jettySize=auto;html=1;exitX=1;exitY=0.5;exitDx=0;exitDy=0;entryX=0;entryY=0.5;entryDx=0;entryDy=0;fontFamily=Architects Daughter;fontSource=https%3A%2F%2Ffonts.googleapis.com%2Fcss%3Ffamily%3DArchitects%2BDaughter;" parent="O7qFsMUnvhCYVVgcGGIn-68" source="aPG-wjut5bU0Uu7Rqg-r-191" target="aPG-wjut5bU0Uu7Rqg-r-193" edge="1">
          <mxGeometry relative="1" as="geometry" />
        </mxCell>
        <mxCell id="aPG-wjut5bU0Uu7Rqg-r-191" value="App::new_main&lt;br&gt;(LiveNew::new_main)" style="rounded=1;whiteSpace=wrap;html=1;sketch=1;hachureGap=4;jiggle=2;curveFitting=1;fontFamily=Comic Sans MS;fontSize=15;fontStyle=1;labelBackgroundColor=none;" parent="O7qFsMUnvhCYVVgcGGIn-68" vertex="1">
          <mxGeometry x="236" y="370" width="180" height="60" as="geometry" />
        </mxCell>
        <mxCell id="aPG-wjut5bU0Uu7Rqg-r-196" style="edgeStyle=orthogonalEdgeStyle;rounded=0;sketch=1;hachureGap=4;jiggle=2;curveFitting=1;orthogonalLoop=1;jettySize=auto;html=1;exitX=0.5;exitY=1;exitDx=0;exitDy=0;entryX=0.5;entryY=0;entryDx=0;entryDy=0;fontFamily=Architects Daughter;fontSource=https%3A%2F%2Ffonts.googleapis.com%2Fcss%3Ffamily%3DArchitects%2BDaughter;" parent="O7qFsMUnvhCYVVgcGGIn-68" source="aPG-wjut5bU0Uu7Rqg-r-193" target="aPG-wjut5bU0Uu7Rqg-r-195" edge="1">
          <mxGeometry relative="1" as="geometry" />
        </mxCell>
        <mxCell id="aPG-wjut5bU0Uu7Rqg-r-193" value="LiveNew::live_type_info" style="rounded=1;whiteSpace=wrap;html=1;sketch=1;hachureGap=4;jiggle=2;curveFitting=1;fontFamily=Comic Sans MS;fontSize=15;fontStyle=1;labelBackgroundColor=none;" parent="O7qFsMUnvhCYVVgcGGIn-68" vertex="1">
          <mxGeometry x="470" y="370" width="200" height="60" as="geometry" />
        </mxCell>
        <mxCell id="aPG-wjut5bU0Uu7Rqg-r-199" style="edgeStyle=orthogonalEdgeStyle;rounded=0;sketch=1;hachureGap=4;jiggle=2;curveFitting=1;orthogonalLoop=1;jettySize=auto;html=1;exitX=0.5;exitY=1;exitDx=0;exitDy=0;entryX=0.5;entryY=0;entryDx=0;entryDy=0;fontFamily=Architects Daughter;fontSource=https%3A%2F%2Ffonts.googleapis.com%2Fcss%3Ffamily%3DArchitects%2BDaughter;" parent="O7qFsMUnvhCYVVgcGGIn-68" source="aPG-wjut5bU0Uu7Rqg-r-195" target="aPG-wjut5bU0Uu7Rqg-r-198" edge="1">
          <mxGeometry relative="1" as="geometry" />
        </mxCell>
        <mxCell id="aPG-wjut5bU0Uu7Rqg-r-195" value="LiveNew::new_from_module" style="rounded=1;whiteSpace=wrap;html=1;sketch=1;hachureGap=4;jiggle=2;curveFitting=1;fontFamily=Comic Sans MS;fontSize=15;fontStyle=1;labelBackgroundColor=none;" parent="O7qFsMUnvhCYVVgcGGIn-68" vertex="1">
          <mxGeometry x="460" y="480" width="220" height="60" as="geometry" />
        </mxCell>
        <mxCell id="aPG-wjut5bU0Uu7Rqg-r-201" style="edgeStyle=orthogonalEdgeStyle;rounded=0;sketch=1;hachureGap=4;jiggle=2;curveFitting=1;orthogonalLoop=1;jettySize=auto;html=1;exitX=0.5;exitY=1;exitDx=0;exitDy=0;entryX=0.5;entryY=0;entryDx=0;entryDy=0;fontFamily=Architects Daughter;fontSource=https%3A%2F%2Ffonts.googleapis.com%2Fcss%3Ffamily%3DArchitects%2BDaughter;" parent="O7qFsMUnvhCYVVgcGGIn-68" source="aPG-wjut5bU0Uu7Rqg-r-198" target="aPG-wjut5bU0Uu7Rqg-r-200" edge="1">
          <mxGeometry relative="1" as="geometry" />
        </mxCell>
        <mxCell id="aPG-wjut5bU0Uu7Rqg-r-198" value="LiveNew::new" style="rounded=1;whiteSpace=wrap;html=1;sketch=1;hachureGap=4;jiggle=2;curveFitting=1;fontFamily=Comic Sans MS;fontSize=15;fontStyle=1;labelBackgroundColor=none;" parent="O7qFsMUnvhCYVVgcGGIn-68" vertex="1">
          <mxGeometry x="490" y="580" width="160" height="60" as="geometry" />
        </mxCell>
        <mxCell id="aPG-wjut5bU0Uu7Rqg-r-203" style="edgeStyle=orthogonalEdgeStyle;rounded=0;sketch=1;hachureGap=4;jiggle=2;curveFitting=1;orthogonalLoop=1;jettySize=auto;html=1;exitX=0.5;exitY=1;exitDx=0;exitDy=0;entryX=0.5;entryY=0;entryDx=0;entryDy=0;fontFamily=Architects Daughter;fontSource=https%3A%2F%2Ffonts.googleapis.com%2Fcss%3Ffamily%3DArchitects%2BDaughter;" parent="O7qFsMUnvhCYVVgcGGIn-68" source="aPG-wjut5bU0Uu7Rqg-r-200" target="aPG-wjut5bU0Uu7Rqg-r-202" edge="1">
          <mxGeometry relative="1" as="geometry" />
        </mxCell>
        <mxCell id="aPG-wjut5bU0Uu7Rqg-r-200" value="&amp;nbsp;LiveHook::after_new_before_apply" style="rounded=1;whiteSpace=wrap;html=1;sketch=1;hachureGap=4;jiggle=2;curveFitting=1;fontFamily=Comic Sans MS;fontSize=15;fontStyle=1;labelBackgroundColor=none;fillColor=#e6d0de;gradientColor=#d5739d;strokeColor=#996185;" parent="O7qFsMUnvhCYVVgcGGIn-68" vertex="1">
          <mxGeometry x="435" y="680" width="270" height="60" as="geometry" />
        </mxCell>
        <mxCell id="aPG-wjut5bU0Uu7Rqg-r-204" style="edgeStyle=orthogonalEdgeStyle;rounded=0;sketch=1;hachureGap=4;jiggle=2;curveFitting=1;orthogonalLoop=1;jettySize=auto;html=1;exitX=0;exitY=0.5;exitDx=0;exitDy=0;entryX=1;entryY=0.5;entryDx=0;entryDy=0;fontFamily=Architects Daughter;fontSource=https%3A%2F%2Ffonts.googleapis.com%2Fcss%3Ffamily%3DArchitects%2BDaughter;" parent="O7qFsMUnvhCYVVgcGGIn-68" source="aPG-wjut5bU0Uu7Rqg-r-202" target="aPG-wjut5bU0Uu7Rqg-r-189" edge="1">
          <mxGeometry relative="1" as="geometry" />
        </mxCell>
        <mxCell id="aPG-wjut5bU0Uu7Rqg-r-202" value="LiveApply::apply&amp;nbsp;subprocess&lt;br&gt;(ApplyFrom::NewFromDoc)" style="rounded=1;whiteSpace=wrap;html=1;sketch=1;hachureGap=4;jiggle=2;curveFitting=1;fontFamily=Comic Sans MS;fontSize=15;fontStyle=1;labelBackgroundColor=none;fillColor=#dae8fc;gradientColor=#7ea6e0;strokeColor=#6c8ebf;" parent="O7qFsMUnvhCYVVgcGGIn-68" vertex="1">
          <mxGeometry x="445" y="770" width="250" height="70" as="geometry" />
        </mxCell>
        <mxCell id="aPG-wjut5bU0Uu7Rqg-r-216" style="edgeStyle=orthogonalEdgeStyle;rounded=0;sketch=1;hachureGap=4;jiggle=2;curveFitting=1;orthogonalLoop=1;jettySize=auto;html=1;exitX=1;exitY=0.5;exitDx=0;exitDy=0;fontFamily=Architects Daughter;fontSource=https%3A%2F%2Ffonts.googleapis.com%2Fcss%3Ffamily%3DArchitects%2BDaughter;" parent="O7qFsMUnvhCYVVgcGGIn-68" source="aPG-wjut5bU0Uu7Rqg-r-209" target="aPG-wjut5bU0Uu7Rqg-r-215" edge="1">
          <mxGeometry relative="1" as="geometry" />
        </mxCell>
        <mxCell id="aPG-wjut5bU0Uu7Rqg-r-209" value="App::update_main&lt;br&gt;(LiveNew::update_main)" style="rounded=1;whiteSpace=wrap;html=1;sketch=1;hachureGap=4;jiggle=2;curveFitting=1;fontFamily=Comic Sans MS;fontSize=15;fontStyle=1;labelBackgroundColor=none;" parent="O7qFsMUnvhCYVVgcGGIn-68" vertex="1">
          <mxGeometry x="110" y="890" width="180" height="60" as="geometry" />
        </mxCell>
        <mxCell id="aPG-wjut5bU0Uu7Rqg-r-212" value="&amp;lt;dyn AppMain&amp;gt;::handle_event" style="rounded=1;whiteSpace=wrap;html=1;sketch=1;hachureGap=4;jiggle=2;curveFitting=1;fontFamily=Comic Sans MS;fontSize=15;fontStyle=1;labelBackgroundColor=none;" parent="O7qFsMUnvhCYVVgcGGIn-68" vertex="1">
          <mxGeometry x="250" y="1120" width="230" height="60" as="geometry" />
        </mxCell>
        <mxCell id="aPG-wjut5bU0Uu7Rqg-r-218" style="edgeStyle=orthogonalEdgeStyle;rounded=0;sketch=1;hachureGap=4;jiggle=2;curveFitting=1;orthogonalLoop=1;jettySize=auto;html=1;exitX=0.5;exitY=1;exitDx=0;exitDy=0;fontFamily=Architects Daughter;fontSource=https%3A%2F%2Ffonts.googleapis.com%2Fcss%3Ffamily%3DArchitects%2BDaughter;" parent="O7qFsMUnvhCYVVgcGGIn-68" source="aPG-wjut5bU0Uu7Rqg-r-215" target="aPG-wjut5bU0Uu7Rqg-r-217" edge="1">
          <mxGeometry relative="1" as="geometry" />
        </mxCell>
        <mxCell id="aPG-wjut5bU0Uu7Rqg-r-215" value="LiveNew::update_from_module" style="rounded=1;whiteSpace=wrap;html=1;sketch=1;hachureGap=4;jiggle=2;curveFitting=1;fontFamily=Comic Sans MS;fontSize=15;fontStyle=1;labelBackgroundColor=none;" parent="O7qFsMUnvhCYVVgcGGIn-68" vertex="1">
          <mxGeometry x="460" y="890" width="240" height="60" as="geometry" />
        </mxCell>
        <mxCell id="O7qFsMUnvhCYVVgcGGIn-6" style="edgeStyle=orthogonalEdgeStyle;rounded=0;sketch=1;hachureGap=4;jiggle=2;curveFitting=1;orthogonalLoop=1;jettySize=auto;html=1;exitX=0.5;exitY=1;exitDx=0;exitDy=0;entryX=0.5;entryY=0;entryDx=0;entryDy=0;fontFamily=Architects Daughter;fontSource=https%3A%2F%2Ffonts.googleapis.com%2Fcss%3Ffamily%3DArchitects%2BDaughter;" parent="O7qFsMUnvhCYVVgcGGIn-68" source="aPG-wjut5bU0Uu7Rqg-r-217" target="aPG-wjut5bU0Uu7Rqg-r-212" edge="1">
          <mxGeometry relative="1" as="geometry" />
        </mxCell>
        <mxCell id="aPG-wjut5bU0Uu7Rqg-r-217" value="LiveApply::apply subprocess&lt;br&gt;(ApplyFrom::UpdateFromDoc)" style="rounded=1;whiteSpace=wrap;html=1;sketch=1;hachureGap=4;jiggle=2;curveFitting=1;fontFamily=Comic Sans MS;fontSize=15;fontStyle=1;labelBackgroundColor=none;fillColor=#dae8fc;gradientColor=#7ea6e0;strokeColor=#6c8ebf;" parent="O7qFsMUnvhCYVVgcGGIn-68" vertex="1">
          <mxGeometry x="460" y="980" width="240" height="70" as="geometry" />
        </mxCell>
        <mxCell id="O7qFsMUnvhCYVVgcGGIn-67" value="app_main!(App)" style="text;html=1;align=left;verticalAlign=middle;whiteSpace=wrap;rounded=0;fontFamily=Comic Sans MS;fontSize=21;fontStyle=1;fillColor=#f5f5f5;gradientColor=#b3b3b3;strokeColor=#666666;sketch=1;curveFitting=1;jiggle=2;" parent="O7qFsMUnvhCYVVgcGGIn-68" vertex="1">
          <mxGeometry width="170" height="30" as="geometry" />
        </mxCell>
      </root>
    </mxGraphModel>
  </diagram>
</mxfile>
